<?xml version="1.0" encoding="utf-8"?>
<!-- Generator: Adobe Illustrator 18.1.1, SVG Export Plug-In . SVG Version: 6.00 Build 0)  -->
<svg version="1.1" id="Layer_1" xmlns="http://www.w3.org/2000/svg" xmlns:xlink="http://www.w3.org/1999/xlink" x="0px" y="0px"
	 viewBox="0 0 125 43" enable-background="new 0 0 125 43" xml:space="preserve">
<g>
	<path fill="#EC1E4D" d="M0,43c0,0,71.7-17.8,124.8-5.3l0.2-0.6c0,0-46.4-13.9-124.1,3L0,43z"/>
	<path fill="#1A325E" d="M34.3,8v3c0.3-0.6,0.6-1.4,1.5-2.2c1-0.8,2.4-1.3,3.8-1.3c0.7,0,1.4,0.1,2.1,0.4c2.2,0.8,2.9,2.6,3.1,3.4
		c1.7-3.2,4.5-3.7,5.9-3.7c1.8,0,3.4,0.7,4.4,1.7c1.9,1.9,2,3.9,2,8.9v11.7h-5.5V19.5c0-3.5-0.1-4.2-0.6-5.2c-0.6-1-1.5-1.2-2.3-1.2
		c-1.5,0-2.3,1.1-2.4,1.3c-0.6,1.1-0.6,2.9-0.6,4.6v10.8h-5.5v-11c0-2.4,0-3.4-0.6-4.4c-0.4-0.7-1.2-1.3-2.3-1.3
		c-0.5,0-1,0.1-1.4,0.4c-1.6,0.9-1.7,2.5-1.7,6.7v9.7h-5.5V8H34.3z"/>
	<polygon fill="#1A325E" points="79.1,8 84.7,8 79.1,29.9 74,29.9 70.7,15.1 67.5,29.9 62.3,29.9 56.6,8 62.3,8 65.2,21.7 68.3,8 
		73.1,8 76.2,21.7 	"/>
	<path fill="#1A325E" d="M96.6,29.9h5.4V8h-5.3v2.8c-1-2.1-2.7-3.3-4.8-3.3c-3.7,0-8.5,3.2-8.5,11.8c0,6.8,3.5,11.1,8.1,11.1
		c3.2,0,4.4-1.9,5.1-2.9V29.9z M96.3,18.7c0,2-0.3,3.9-1.4,5.3c-1,1.1-2.1,1.2-2.4,1.2c-1.1,0-2.3-0.7-3.1-2.6
		c-0.4-1.1-0.6-2.4-0.6-3.8c0-1.7,0.2-3.4,1.2-4.8c0.7-1,1.7-1.6,2.7-1.6c0.8,0,1.7,0.4,2.2,1.1C95.7,14.4,96.3,15.9,96.3,18.7"/>
	<path fill="#1A325E" d="M114.8,8h5.6l-6.2,21.7c-0.5,1.5-1.2,4-2.3,5.2c-1,1.1-2.2,1.6-6.7,1.6c-0.6,0-0.9,0-1.5-0.1v-4.9h1.5
		c0.5,0,1.8,0,2.3-0.5c0.4-0.4,0.8-1.3,0.8-2.2c0-0.5-0.2-1.3-0.4-1.9l-6-19h6l3.5,14.7L114.8,8z"/>
	<path fill="#1A325E" d="M16.5,6.6l3,11.5h-5.8L16.5,6.6z M13,0L3.8,29.9h6.8l1.7-6.3H21l1.8,6.3h6.8L19.9,0H13z"/>
	<path fill="#1A325E" d="M120.7,27.5h0.7c0.3,0,0.6-0.1,0.7-0.2c0.1-0.1,0.2-0.2,0.2-0.4c0-0.1,0-0.2-0.1-0.3
		c-0.1-0.1-0.1-0.1-0.2-0.2c-0.1,0-0.3-0.1-0.6-0.1h-0.7V27.5z M120.2,29.6v-3.7h1.2c0.4,0,0.7,0,0.9,0.1c0.2,0.1,0.3,0.2,0.5,0.4
		c0.1,0.2,0.2,0.3,0.2,0.5c0,0.3-0.1,0.5-0.3,0.7c-0.2,0.2-0.4,0.3-0.8,0.3c0.1,0.1,0.2,0.1,0.3,0.2c0.1,0.1,0.3,0.4,0.5,0.7
		l0.4,0.7h-0.7l-0.3-0.6c-0.3-0.5-0.5-0.7-0.6-0.9c-0.1-0.1-0.3-0.1-0.5-0.1h-0.3v1.6H120.2z M121.6,24.9c-0.5,0-0.9,0.1-1.4,0.4
		c-0.4,0.2-0.8,0.6-1.1,1.1c-0.3,0.5-0.4,0.9-0.4,1.4c0,0.5,0.1,1,0.4,1.4c0.2,0.5,0.6,0.8,1,1.1c0.4,0.3,0.9,0.4,1.4,0.4
		c0.5,0,0.9-0.1,1.4-0.4c0.4-0.3,0.8-0.6,1-1.1c0.2-0.4,0.4-0.9,0.4-1.4c0-0.5-0.1-1-0.4-1.4c-0.3-0.5-0.6-0.8-1-1.1
		C122.6,25,122.1,24.9,121.6,24.9 M121.6,24.3c0.6,0,1.1,0.1,1.7,0.4c0.5,0.3,1,0.7,1.3,1.3c0.3,0.5,0.5,1.1,0.5,1.7
		c0,0.6-0.1,1.2-0.4,1.7c-0.3,0.5-0.7,1-1.2,1.3c-0.5,0.3-1.1,0.5-1.7,0.5c-0.6,0-1.1-0.2-1.7-0.5c-0.5-0.3-0.9-0.7-1.2-1.3
		c-0.3-0.5-0.4-1.1-0.4-1.7c0-0.6,0.2-1.2,0.5-1.7c0.3-0.5,0.7-1,1.3-1.3C120.5,24.5,121.1,24.3,121.6,24.3"/>
</g>
</svg>
